<svg width="120" height="27" viewBox="0 0 120 27" fill="none" xmlns="http://www.w3.org/2000/svg">
<g clip-path="url(#clip0_439_515)">
<path d="M27 3.01465L16.5 11.1813C15.3333 7.01465 11.8333 4.01465 7.5 4.01465H0V22.6813H7.5C11.8333 22.6813 15.6667 19.6813 16.3333 15.6813L26.8333 23.848L37.3333 15.6813V22.6813H49.1667V18.848H41.3333V4.01465H37V11.0146L27 19.1813L25 17.3478L30 13.5145L35 9.51445L32 7.01445L22 14.8478L20 13.0145L30 5.51445L27 3.01465ZM4 7.84798H7.16667C7.83333 7.84798 8.5 8.01465 9.16667 8.34798C9.83333 8.68132 10.3333 9.01465 10.8333 9.51465C11.3333 10.0146 11.6667 10.5146 12 11.348C12.3333 12.0146 12.5 12.848 12.5 13.6813C12.5 14.3478 12.3333 15.1811 12.1667 15.848C11.8333 16.348 11.3333 17.0146 11 17.5146C10.5 18.0146 10 18.348 9.33333 18.6813C8.66667 19.0145 8 19.1813 7.33333 19.1813H4V7.84798ZM62.8333 18.848V22.6813H51V4.01465H55.3333V18.848H62.8333Z" fill="#007DB8"/>
<path d="M112.833 23.0148C116.5 23.0148 119.5 21.1815 120 17.1815L119.833 17.0148H118.833L118.666 17.1815C118.166 20.0148 116.333 21.6815 113 21.6815C109 21.6815 106.166 18.6815 106.166 13.5148C106.166 8.34815 109.166 5.34814 113 5.34814C116.166 5.34814 118 7.01481 118.666 9.51481V9.68148H119.666L120 9.51481C119.5 5.84814 116.5 3.84814 112.833 3.84814C108.333 3.84814 104.333 7.01481 104.333 13.3481C104.333 19.8481 108.333 23.0148 112.833 23.0148ZM101.167 22.5148V4.51481L101 4.34814H99.1663L98.9997 4.51481L92.1661 20.6815H91.9995L84.9995 4.51481L84.8328 4.34814H82.9999L82.8332 4.51481V22.5148L82.9999 22.6815H84.0001L84.1667 22.5148V7.18148H84.3334L91.0001 22.5148L91.1669 22.6815H92.5003L92.6669 22.5148L99.3336 7.18148H99.6669V22.5148L99.8338 22.6815H100.834L101.167 22.5148ZM78.9999 22.5148V21.6815L78.833 21.5146H68.9999L68.833 21.3479V14.3479L68.9999 14.1813H78.1665L78.3332 13.8479V13.0146L78.1665 12.8479H68.9999L68.833 12.6813V6.01462L68.9999 5.84795H78.833L78.9999 5.68128V4.51462L78.833 4.34795H67.4997L67.333 4.51462V22.5146L67.4997 22.6813H78.833L78.9999 22.5148Z" fill="white"/>
</g>
<defs>
<clipPath id="clip0_439_515">
<rect width="120" height="26.8627" fill="white"/>
</clipPath>
</defs>
</svg>
