<svg width="120" height="51" viewBox="0 0 120 51" fill="none" xmlns="http://www.w3.org/2000/svg">
<g id="Hewlett_Packard_Enterprise_logo logo" clip-path="url(#clip0_531_30)">
<g id="Group">
<g id="Group_2">
<path id="Vector" d="M38.5532 9.26068H2.62828V2.60286H38.5532V9.26068ZM41.12 0.0321655H0.0601807V11.8249H41.12V0.0321655Z" fill="#00B188"/>
<g id="Group_3">
<path id="Vector_2" d="M2.62829 31.3232H0.0616455V19.5273H2.62829V24.1871H7.21408V19.5273H9.78072V31.3232H7.21408V26.4365H2.62829V31.3232Z" fill="white"/>
</g>
<g id="Group_4">
<path id="Vector_3" d="M13.6921 26.1167H16.7493C16.6923 25.2495 16.3344 24.6451 15.3338 24.6451C14.5788 24.6451 13.9183 24.9664 13.6921 26.1167ZM15.6356 31.4753C13.0315 31.4753 11.2581 29.8337 11.2581 27.1369C11.2581 24.5133 12.9941 22.7024 15.2963 22.7024C17.806 22.7024 19.0515 24.3815 19.0515 26.8912V27.8349H13.6921C13.9947 29.1357 15.0132 29.4749 16.0326 29.4749C16.9193 29.4749 17.5604 29.287 18.3527 28.7956H18.4479V30.7391C17.7686 31.2305 16.8054 31.4753 15.6356 31.4753Z" fill="white"/>
</g>
<g id="Group_5">
<path id="Vector_4" d="M25.7321 26.3771L24.4109 31.32H22.1656L19.599 23.0221V22.9278H22.0526L23.4486 27.8902L24.7697 22.9278H26.7701L28.11 27.8902L29.5255 22.9278H31.8847V23.0221L29.3181 31.32H27.072L25.7321 26.3771Z" fill="white"/>
</g>
<g id="Group_6">
<path id="Vector_5" d="M36.0149 31.4534C33.9771 31.4534 33.1465 30.6424 33.1465 28.7371V19.4712H35.6375V28.5663C35.6375 29.1512 35.8636 29.3586 36.3542 29.3586C36.5242 29.3586 36.7699 29.3025 36.9204 29.2455H36.9586V31.3021C36.7512 31.377 36.3924 31.4526 36.0149 31.4526" fill="white"/>
</g>
<g id="Group_7">
<path id="Vector_6" d="M40.1151 26.1167H43.1723C43.1153 25.2495 42.7574 24.6451 41.7567 24.6451C41.0026 24.6451 40.3412 24.9664 40.1151 26.1167ZM42.0586 31.4753C39.4545 31.4753 37.681 29.8337 37.681 27.1369C37.681 24.5133 39.4171 22.7024 41.7193 22.7024C44.229 22.7024 45.4745 24.3815 45.4745 26.8912V27.8349H40.1151C40.4169 29.1357 41.4362 29.4749 42.4547 29.4749C43.3423 29.4749 43.9833 29.287 44.7765 28.7956H44.8709V30.7391C44.1916 31.2305 43.2292 31.4753 42.0586 31.4753Z" fill="white"/>
</g>
<g id="Group_8">
<path id="Vector_7" d="M55.7346 22.9277H57.5837V24.9274H55.7346V28.3425C55.7346 29.0787 56.0177 29.4188 56.7726 29.4188C56.9801 29.4188 57.2445 29.3993 57.5276 29.3049H57.5837V31.2671C57.2632 31.381 56.7726 31.512 56.0559 31.512C54.036 31.512 53.2436 30.5878 53.2436 28.4556V24.9274H50.0546V28.3425C50.0546 29.0787 50.3377 29.4188 51.0919 29.4188C51.3001 29.4188 51.5645 29.3993 51.8476 29.3049H51.9037V31.2671C51.5832 31.381 51.0919 31.512 50.376 31.512C48.356 31.512 47.5636 30.5878 47.5636 28.4556V24.9274H46.2799V22.9277H47.5636V20.6263H50.0546V22.9277H53.2436V20.6263H55.7346V22.9277Z" fill="white"/>
</g>
<g id="Group_9">
<path id="Vector_8" d="M65.9524 25.2707C67.2556 25.2707 67.8772 24.5353 67.8772 23.4785C67.8772 22.3835 67.2556 21.6481 65.9524 21.6481H64.3294V25.2707H65.9524ZM70.482 23.4785C70.482 26.0452 68.7647 27.4404 66.1598 27.4404H64.3294V31.2704H61.7644V19.4744H66.1598C68.7647 19.4744 70.482 20.8704 70.482 23.4745" fill="white"/>
</g>
<g id="Group_10">
<path id="Vector_9" d="M75.9748 28.6549V27.9382C75.5974 27.7316 75.1076 27.6559 74.5976 27.6559C73.7865 27.6559 73.2959 27.9569 73.2959 28.6362C73.2959 29.335 73.7865 29.6368 74.5219 29.6368C75.2199 29.6368 75.7487 29.278 75.9748 28.6549ZM76.0505 30.4666C75.503 31.1272 74.6927 31.4477 73.8231 31.4477C72.1822 31.4477 70.8416 30.4487 70.8416 28.6736C70.8416 27.0327 72.1822 25.9386 74.1062 25.9386C74.7098 25.9386 75.3338 26.0329 75.9748 26.2209V26.0712C75.9748 25.1649 75.4656 24.7695 74.1265 24.7695C73.2764 24.7695 72.4653 25.0136 71.7665 25.4106H71.673V23.4102C72.314 23.0335 73.4472 22.7122 74.5593 22.7122C77.0885 22.7122 78.4658 23.9194 78.4658 26.0329V31.2964H76.0505V30.4666Z" fill="white"/>
</g>
<g id="Group_11">
<path id="Vector_10" d="M79.6844 27.0929C79.6844 24.3945 81.5913 22.6967 84.0823 22.6967C84.969 22.6967 85.7988 22.8854 86.422 23.3378V25.47H86.3268C85.7793 25.0551 85.1383 24.8094 84.4028 24.8094C83.1573 24.8094 82.2137 25.6595 82.2137 27.0929C82.2137 28.5264 83.1573 29.357 84.4028 29.357C85.1383 29.357 85.7793 29.1113 86.3268 28.6956H86.422V30.8278C85.7988 31.2809 84.969 31.4697 84.0823 31.4697C81.5913 31.4697 79.6844 29.7914 79.6844 27.0929Z" fill="white"/>
</g>
<g id="Group_12">
<path id="Vector_11" d="M90.488 27.4834V31.2939H87.9978V19.498H90.488V26.2144L92.9985 22.8936H95.8287V22.9879L92.8097 26.7993L95.8287 31.1955V31.2899H92.979L90.488 27.4794" fill="white"/>
</g>
<g id="Group_13">
<path id="Vector_12" d="M101.422 28.6549V27.9382C101.045 27.7316 100.554 27.6559 100.044 27.6559C99.2333 27.6559 98.7427 27.9569 98.7427 28.6362C98.7427 29.335 99.2333 29.6368 99.9679 29.6368C100.668 29.6368 101.195 29.278 101.422 28.6549ZM101.497 30.4666C100.95 31.1272 100.138 31.4477 99.2707 31.4477C97.6282 31.4477 96.2892 30.4487 96.2892 28.6736C96.2892 27.0327 97.6282 25.9386 99.5546 25.9386C100.158 25.9386 100.78 26.0329 101.422 26.2209V26.0712C101.422 25.1649 100.912 24.7695 99.5725 24.7695C98.724 24.7695 97.9113 25.0136 97.2133 25.4106H97.119V23.4102C97.7608 23.0335 98.8932 22.7122 100.006 22.7122C102.536 22.7122 103.913 23.9194 103.913 26.0329V31.2964H101.497V30.4666Z" fill="white"/>
</g>
<g id="Group_14">
<path id="Vector_13" d="M108.125 24.2294C108.577 23.3044 109.239 22.7764 110.164 22.7764C110.503 22.7764 110.842 22.8521 110.973 22.9277V25.3048H110.88C110.597 25.1909 110.257 25.1161 109.785 25.1161C109.012 25.1161 108.408 25.5692 108.2 26.4364V31.2671H105.71V22.8716H108.125V24.2302" fill="white"/>
</g>
<g id="Group_15">
<path id="Vector_14" d="M117.562 28.4596V25.7612C117.147 25.1576 116.6 24.894 115.976 24.894C114.883 24.894 114.147 25.6872 114.147 27.1206C114.147 28.554 114.883 29.3277 115.976 29.3277C116.6 29.3277 117.147 29.0633 117.562 28.4596ZM117.637 30.4414C117.109 31.1207 116.278 31.4973 115.146 31.4973C112.995 31.4973 111.617 29.5359 111.617 27.1206C111.617 24.7053 112.995 22.7244 115.146 22.7244C116.241 22.7244 117.033 23.0644 117.562 23.6867V19.5175H120.053V31.3053H117.637V30.4381" fill="white"/>
</g>
<g id="Group_16">
<path id="Vector_15" d="M0.0900879 35.163H7.37431V36.5964H1.73176V40.1995H6.84552V41.5963H1.73176V45.5207H7.37431V46.9541H0.0900879V35.1663" fill="white"/>
</g>
<g id="Group_17">
<path id="Vector_16" d="M13.3667 38.4822C15.2345 38.4822 16.2726 39.7089 16.2726 41.7265V46.9533H14.7066V41.7647C14.7066 40.6892 14.1591 39.9156 12.9705 39.9156C11.9894 39.9156 11.1588 40.5387 10.8757 41.4247V46.9533H9.30969V38.6554H10.8757V39.8627C11.3663 39.0891 12.1969 38.4854 13.3667 38.4854" fill="white"/>
</g>
<g id="Group_18">
<path id="Vector_17" d="M20.4606 38.6124H22.5928V39.9522H20.4606V44.4233C20.4606 45.3662 20.9511 45.6875 21.8379 45.6875C22.0827 45.6875 22.3471 45.6501 22.5359 45.5744H22.5928V46.9135C22.3666 47.0078 22.0453 47.0835 21.6117 47.0835C19.6674 47.0835 18.8946 46.196 18.8946 44.5746V39.9522H17.4603V38.6124H18.8946V36.4061H20.4606V38.6124Z" fill="white"/>
</g>
<g id="Group_19">
<path id="Vector_18" d="M25.2115 41.9966H29.3441C29.288 40.7706 28.6836 39.8277 27.4006 39.8277C26.2121 39.8277 25.4376 40.7145 25.2115 41.9966ZM27.6837 47.129C25.2489 47.129 23.5885 45.5061 23.5885 42.9028C23.5885 40.2987 25.1358 38.4879 27.3819 38.4879C29.6655 38.4879 30.854 40.1295 30.854 42.5628V43.2803H25.1545C25.3245 44.9594 26.4008 45.7705 27.8912 45.7705C28.8162 45.7705 29.4759 45.563 30.2121 45.0155H30.2691V46.3936C29.5898 46.9216 28.7023 47.129 27.6837 47.129Z" fill="white"/>
</g>
<g id="Group_20">
<path id="Vector_19" d="M34.3229 39.914C34.6816 39.0273 35.4748 38.4993 36.3794 38.4993C36.739 38.4993 37.0595 38.5554 37.1913 38.6311V40.1776H37.1352C36.9082 40.0653 36.5307 40.0084 36.1533 40.0084C35.3048 40.0084 34.5872 40.5737 34.3229 41.5174V46.9322H32.7568V38.6343H34.3229V39.9172" fill="white"/>
</g>
<g id="Group_21">
<path id="Vector_20" d="M42.1977 45.7062C43.745 45.7062 44.6513 44.4802 44.6513 42.8003C44.6513 41.1408 43.745 39.8961 42.1977 39.8961C41.3484 39.8961 40.5561 40.4053 40.1412 41.2156V44.4054C40.5561 45.2157 41.3484 45.7062 42.1977 45.7062ZM42.4621 38.4806C44.9336 38.4806 46.2547 40.4997 46.2547 42.8003C46.2547 45.1034 44.9336 47.1217 42.4621 47.1217C41.4428 47.1217 40.5748 46.5938 40.1412 46.0267V50.1407H38.5743V38.6538H40.1412V39.5967C40.5748 39.0118 41.4428 38.4838 42.4621 38.4838" fill="white"/>
</g>
<g id="Group_22">
<path id="Vector_21" d="M49.682 39.914C50.0399 39.0273 50.8331 38.4993 51.7386 38.4993C52.0973 38.4993 52.4178 38.5554 52.5496 38.6311V40.1776H52.4935C52.2673 40.0653 51.8899 40.0084 51.5124 40.0084C50.6631 40.0084 49.9464 40.5737 49.682 41.5174V46.9322H48.116V38.6343H49.682V39.9172" fill="white"/>
</g>
<g id="Group_23">
<path id="Vector_22" d="M54.8235 35.2932C55.371 35.2932 55.8233 35.7268 55.8233 36.2743C55.8233 36.8218 55.371 37.2554 54.8235 37.2554C54.2955 37.2554 53.8229 36.8218 53.8229 36.2743C53.8229 35.7268 54.2955 35.2932 54.8235 35.2932Z" fill="white"/>
</g>
<path id="Vector_23" d="M54.0425 46.9427H55.6097V38.6384H54.0425V46.9427Z" fill="white"/>
<g id="Group_24">
<path id="Vector_24" d="M61.2014 42.0616C62.39 42.4383 63.7103 42.9288 63.7103 44.5136C63.7103 46.2122 62.3143 47.0802 60.5222 47.0802C59.4272 47.0802 58.333 46.8158 57.7098 46.3253V44.8349H57.7855C58.4843 45.4759 59.5215 45.7591 60.5026 45.7591C61.3894 45.7591 62.1825 45.419 62.1825 44.7023C62.1825 43.9669 61.5228 43.7968 60.2195 43.3632C59.0497 42.9858 57.7481 42.5514 57.7481 40.9862C57.7481 39.3819 59.0684 38.439 60.7483 38.439C61.7294 38.439 62.5974 38.6465 63.2954 39.1183V40.6282H63.2393C62.5608 40.0807 61.7668 39.7594 60.7857 39.7594C59.8046 39.7594 59.2571 40.1938 59.2571 40.7787C59.2571 41.4393 59.8608 41.6272 61.2014 42.0616Z" fill="white"/>
</g>
<g id="Group_25">
<path id="Vector_25" d="M66.6683 41.9966H70.8001C70.744 40.7706 70.1403 39.8277 68.8566 39.8277C67.6681 39.8277 66.8944 40.7145 66.6683 41.9966ZM69.1397 47.129C66.7057 47.129 65.0453 45.5061 65.0453 42.9028C65.0453 40.2987 66.5926 38.4879 68.8379 38.4879C71.1223 38.4879 72.31 40.1295 72.31 42.5628V43.2803H66.6113C66.7813 44.9594 67.8568 45.7705 69.3472 45.7705C70.2729 45.7705 70.9327 45.563 71.6681 45.0155H71.7251V46.3936C71.0466 46.9216 70.159 47.129 69.1397 47.129Z" fill="white"/>
</g>
</g>
</g>
</g>
<defs>
<clipPath id="clip0_531_30">
<rect width="120" height="50.1162" fill="white"/>
</clipPath>
</defs>
</svg>
