<svg width="120" height="23" viewBox="0 0 120 23" fill="none" xmlns="http://www.w3.org/2000/svg">
<path d="M118.899 4.96875V4.89844C118.899 4.54688 118.618 4.3125 118.173 4.3125H117.376V6.16406H117.751V5.55469H118.173L118.478 6.16406H118.899L118.524 5.4375C118.759 5.39063 118.899 5.17969 118.899 4.96875ZM117.751 4.66406H118.173C118.407 4.66406 118.524 4.73438 118.524 4.94532V4.96875C118.524 5.13281 118.431 5.25 118.173 5.25H117.751V4.66406Z" fill="white"/>
<path d="M118.103 3.35156C117.001 3.35156 116.204 4.17187 116.204 5.25C116.204 6.32812 117.024 7.14844 118.103 7.14844C119.181 7.14844 120.001 6.32812 120.001 5.25C120.001 4.17187 119.181 3.35156 118.103 3.35156ZM118.103 6.91406C117.165 6.91406 116.485 6.23437 116.485 5.25C116.485 4.28906 117.165 3.58594 118.103 3.58594C119.04 3.58594 119.72 4.26562 119.72 5.25C119.72 6.21094 119.04 6.91406 118.103 6.91406Z" fill="white"/>
<path d="M112.618 22.1484V21.3516C113.11 21.5859 113.579 21.7266 114.001 21.7266C114.306 21.7266 114.493 21.6562 114.493 21.5156C114.493 21.375 114.399 21.3516 113.767 21.2344C113.087 21.1406 112.618 20.9297 112.618 20.3437C112.618 19.7812 113.11 19.3828 114.024 19.3828C114.399 19.3828 114.774 19.4531 115.173 19.6172V20.4141C114.821 20.2031 114.376 20.1094 114.001 20.1094C113.649 20.1094 113.556 20.1797 113.556 20.3203C113.556 20.4844 113.767 20.4844 114.282 20.6016C114.962 20.6953 115.431 20.9062 115.431 21.5391C115.431 22.0312 115.079 22.5 114.048 22.5C113.438 22.4297 113.063 22.3125 112.618 22.1484Z" fill="white"/>
<path d="M108.868 19.4297H109.735V20.4844H110.063L110.931 19.4297H111.892L110.79 20.8125L111.962 22.3125H110.978L110.11 21.2109H109.759V22.3125H108.892V19.4297H108.868Z" fill="white"/>
<path d="M104.907 19.4297H106.595C107.345 19.4297 107.743 19.8047 107.743 20.4609C107.743 20.9062 107.532 21.2578 107.181 21.3984L107.86 22.3359H106.853L106.29 21.5859H105.704V22.3359H104.837V19.4297H104.907ZM106.454 20.9063C106.735 20.9063 106.829 20.7422 106.829 20.5313C106.829 20.3203 106.735 20.1563 106.454 20.1563H105.728V20.9063H106.454Z" fill="white"/>
<path d="M100.618 20.8594C100.618 19.9219 101.274 19.3125 102.282 19.3125C103.29 19.3125 103.946 19.8984 103.946 20.8594C103.946 21.7969 103.29 22.4063 102.282 22.4063C101.274 22.4297 100.618 21.8438 100.618 20.8594ZM103.079 20.8594C103.079 20.3438 102.798 20.0625 102.282 20.0625C101.767 20.0625 101.485 20.3672 101.485 20.8594C101.485 21.375 101.767 21.6563 102.282 21.6563C102.798 21.7031 103.079 21.3984 103.079 20.8594Z" fill="white"/>
<path d="M95.1104 19.4297H96.0244L96.5166 21.4219H96.5635L97.1729 19.4297H98.04L98.626 21.4219H98.6494L99.0947 19.4297H100.009L99.2354 22.3125H98.1104L97.5947 20.5547H97.5479L97.0088 22.3125H95.8604L95.1104 19.4297Z" fill="white"/>
<path d="M92.5088 20.1797H91.5244L91.5479 19.4297H94.3838L94.4072 20.1797H93.4229V22.3125H92.5557V20.1797H92.5088Z" fill="white"/>
<path d="M88.1494 19.4297H90.6572L90.6807 20.1094H88.9932V20.5313H90.3525V21.1875H88.9932V21.6328H90.751L90.7275 22.3125H88.1494V19.4297Z" fill="white"/>
<path d="M84.0244 19.4297H84.9385L86.1807 21.0703V19.4297H87.001V22.3125H86.1338L84.8682 20.625V22.3125H84.0244V19.4297Z" fill="white"/>
<path d="M109.454 4.05469C105.868 4.05469 103.313 6.53906 103.313 9.98438V10.4062C103.313 13.8516 105.868 16.3359 109.454 16.3359C113.04 16.3359 115.595 13.8516 115.595 10.4062V9.98438C115.595 6.51563 113.04 4.05469 109.454 4.05469ZM111.962 10.2891C111.962 12.1172 111.024 13.3828 109.454 13.3828C107.86 13.3828 106.946 12.0703 106.946 10.2891V10.0781C106.946 8.25 107.884 6.98438 109.454 6.98438C111.048 6.98438 111.962 8.29687 111.962 10.0781V10.2891Z" fill="white"/>
<path d="M99.8682 13.3828C98.8369 13.3828 98.4619 12.8672 98.4619 11.7891V6.9375H102.61V4.21875H98.4385V1.52344L94.9229 2.03906V12.1406C94.9229 14.9062 96.3291 16.3125 99.165 16.3125C100.407 16.3125 101.884 15.9375 103.103 15.2344L102.095 12.75C101.392 13.1484 100.384 13.3828 99.8682 13.3828Z" fill="white"/>
<path d="M92.9307 0H89.415V16.1016H92.9307V0Z" fill="white"/>
<path d="M82.0088 4.05469C80.4619 4.05469 78.8447 4.47656 76.876 5.53125L77.9775 8.25C79.7119 7.28906 81.1416 6.86719 82.1729 6.86719C83.3447 6.86719 83.9072 7.3125 83.9072 7.89844V7.92188C83.9072 8.34375 83.6025 8.53125 82.8057 8.60156L81.4229 8.74219C78.001 9.11719 76.5947 10.5937 76.5947 12.6328V12.7734C76.5947 14.7422 78.2119 16.2656 80.4854 16.2656C81.9619 16.2656 83.2744 15.6562 84.0713 14.5078L84.3057 16.0547H87.4229V9.04688C87.376 5.76563 85.4775 4.05469 82.0088 4.05469ZM81.6807 13.6406C80.5322 13.6406 79.9932 13.1953 79.9932 12.4922V12.4688C79.9932 11.8594 80.3447 11.4375 81.5869 11.2266L82.1494 11.1563C82.9463 11.0625 83.415 10.9219 83.8838 10.6406V11.5313C83.8604 12.8672 83.04 13.6406 81.6807 13.6406Z" fill="white"/>
<path d="M69.6104 4.05469C66.0244 4.05469 63.4697 6.53906 63.4697 9.98438V10.4062C63.4697 13.8516 66.0244 16.3359 69.6104 16.3359C73.1963 16.3359 75.751 13.8516 75.751 10.4062V9.98438C75.751 6.51563 73.1963 4.05469 69.6104 4.05469ZM72.1416 10.2891C72.1416 12.1172 71.2041 13.3828 69.6338 13.3828C68.0635 13.3828 67.126 12.0703 67.126 10.2891V10.0781C67.126 8.25 68.0635 6.98438 69.6338 6.98438C71.2041 6.98438 72.1416 8.29687 72.1416 10.0781V10.2891Z" fill="white"/>
<path d="M61.8994 0H58.3838V16.1016H61.8994V0Z" fill="white"/>
<path d="M51.001 4.05469C49.4541 4.05469 47.8369 4.47656 45.8682 5.53125L46.9697 8.25C48.7041 7.28906 50.1338 6.86719 51.165 6.86719C52.3369 6.86719 52.8994 7.3125 52.8994 7.89844V7.92188C52.8994 8.34375 52.5947 8.53125 51.7979 8.60156L50.415 8.74219C46.9932 9.11719 45.5869 10.5937 45.5869 12.6328V12.7734C45.5869 14.7422 47.2041 16.2656 49.4775 16.2656C50.9541 16.2656 52.2666 15.6562 53.0635 14.5078L53.2979 16.0547H56.3916V9.04688C56.3916 5.76563 54.4463 4.05469 51.001 4.05469ZM50.6963 13.6406C49.5479 13.6406 49.0088 13.1953 49.0088 12.4922V12.4688C49.0088 11.8594 49.3604 11.4375 50.6025 11.2266L51.165 11.1563C51.9619 11.0625 52.4307 10.9219 52.8994 10.6406V11.5313C52.8525 12.8672 52.0088 13.6406 50.6963 13.6406Z" fill="white"/>
<path d="M39.6104 4.05469C38.0166 4.05469 36.7041 4.78125 36.0244 5.88281L35.7432 4.26562H32.6494V20.1562H36.165V14.6484C36.8213 15.6797 38.0869 16.3359 39.6104 16.3359C42.4463 16.3359 44.7197 13.8516 44.7197 10.4062V9.98438C44.7666 6.51563 42.4463 4.05469 39.6104 4.05469ZM41.1103 10.2891C41.1103 12.1172 40.1729 13.3828 38.6025 13.3828C37.0322 13.3828 36.0947 12.0703 36.0947 10.2891V10.0781C36.0947 8.25 37.0322 6.98438 38.6025 6.98438C40.1729 6.98438 41.1103 8.29687 41.1103 10.0781V10.2891Z" fill="white"/>
<path d="M21.8213 3.98437L17.8604 0L13.8994 3.98437L15.8682 5.92969L5.93066 15.9141L9.8916 19.875L13.8525 15.9141L11.9072 13.9453L21.8213 3.98437Z" fill="#FA582D"/>
<path d="M9.92702 0.00657369L0 9.93359L3.96087 13.8945L13.8879 3.96744L9.92702 0.00657369Z" fill="#FA582D"/>
<path d="M23.8369 5.92969L13.8525 15.9141L17.8369 19.875L27.751 9.9375L23.8369 5.92969Z" fill="#FA582D"/>
</svg>
