<svg width="120" height="17" viewBox="0 0 120 17" fill="none" xmlns="http://www.w3.org/2000/svg">
<path d="M87.0935 0.0769078C84.7949 -3.85121e-05 82.3101 1.32271 81.1314 3.81308C80.3998 5.21888 79.8417 6.78345 79.4704 8.31994C79.4373 8.45482 79.4064 8.59021 79.3775 8.72604C79.3409 8.94467 79.3378 9.22497 79.3574 9.51077C79.4484 10.7199 80.522 12.1819 82.2917 12.265H84.39C86.6881 12.3413 89.1717 11.0179 90.3516 8.52757C91.0832 7.12177 91.6407 5.55598 92.012 4.02071C92.045 3.88392 92.0767 3.74835 92.1048 3.614C92.1433 3.39476 92.1458 3.11568 92.125 2.82927C92.0346 1.6195 90.9604 0.15874 89.1913 0.0762971H87.0929L87.0935 0.0769078ZM47.6842 0.188053L48.624 12.1465H50.5086H50.4976H50.6088C50.7896 12.1406 50.9663 12.0917 51.1244 12.0038C51.2824 11.9158 51.4172 11.7914 51.5175 11.6408H51.5187L59.2023 0.188663H57.2152L51.7111 8.40849L51.065 0.189274H47.6836L47.6842 0.188053ZM60.5758 0.188053L56.166 12.1465H59.551L63.959 0.188663H60.5758V0.188053ZM68.5177 0.188053C65.4771 0.224694 64.1336 3.60789 65.7947 5.7746C66.6374 6.80361 67.8405 7.87047 68.5202 8.99719C68.9507 9.60665 68.4902 10.6228 67.6677 10.6326H62.2991L61.7434 12.1465H68.5403C71.2047 12.1386 73.0075 9.00146 71.2194 6.59536C70.3944 5.37643 69.0857 4.54407 68.3113 3.35323C67.8515 2.73217 68.3138 1.71232 69.1455 1.70133H74.1421L74.6985 0.188053H68.5177ZM77.0411 0.188053L72.6344 12.1471H76.0182L80.4267 0.188663H77.0411V0.188053ZM95.3115 0.188053L90.8841 12.1465H92.6282L95.6792 3.90468L95.6944 4.05247L98.4352 11.454C98.5179 11.65 98.6541 11.8189 98.8281 11.9413C99.0022 12.0638 99.2071 12.1349 99.4196 12.1465H101.014L105.443 0.188663H103.699L100.707 8.27047L97.5198 0.188663H95.3109L95.3115 0.188053ZM87.8667 1.31293C88.5048 1.36179 89.0117 1.89858 89.0117 2.54957C89.0166 2.70957 88.9891 2.86774 88.9293 3.01247L86.6929 9.10222C86.2416 10.2711 85.1931 10.9874 83.9473 11.0241H83.6169C83.3056 10.9992 83.015 10.8582 82.8029 10.629C82.5907 10.3997 82.4726 10.0991 82.4719 9.7868C82.4664 9.6279 82.4949 9.46967 82.5555 9.32268L84.7907 3.23293C85.2426 2.06408 86.2911 1.34958 87.5387 1.31355H87.8667V1.31293Z" fill="#6C6E71"/>
<path d="M16.3174 0.188721L11.9082 12.1472H15.5021L17.6108 6.42809H21.8892L19.7805 12.1472H22.5879C23.063 12.1472 23.4709 11.8473 23.6364 11.429C23.6382 11.4229 23.6401 11.4211 23.6425 11.418L27.783 0.188111H24.1891L22.4914 4.79268H18.2129L19.9106 0.188111H16.3174V0.188721ZM30.0663 0.188721L25.6584 12.1472H29.2504L33.6596 0.188721H30.0663ZM36.1042 0.188721L31.6956 12.1472H35.2883L36.9787 7.56091L37.8764 6.87145L40.2599 11.4919L40.2611 11.4858L40.2672 11.4968C40.3656 11.701 40.5227 11.8711 40.7185 11.9854C40.9142 12.0996 41.1397 12.1528 41.3658 12.138C41.3573 12.138 41.3475 12.1441 41.3383 12.1441H44.3893L40.5939 4.78352L46.5805 0.1875H43.8953L38.0388 4.68397L39.6968 0.1875H36.1042V0.188721Z" fill="#D71820"/>
<path d="M108.092 1.24576C108.092 1.91202 107.569 2.43415 106.889 2.43415C106.216 2.43415 105.68 1.91202 105.68 1.24576C105.68 0.593547 106.216 0.0708008 106.889 0.0708008C107.569 0.0708008 108.092 0.593547 108.092 1.24576ZM105.98 1.24576C105.98 1.76851 106.366 2.18377 106.896 2.18377C107.412 2.18377 107.791 1.76851 107.791 1.25248C107.791 0.730341 107.412 0.307136 106.889 0.307136C106.365 0.307136 105.98 0.730341 105.98 1.24576ZM106.703 1.86133H106.431V0.687593C106.58 0.660999 106.731 0.64873 106.883 0.650952C107.104 0.650952 107.205 0.687593 107.29 0.737669C107.327 0.769291 107.357 0.808879 107.377 0.853493C107.396 0.898108 107.406 0.946604 107.404 0.995378C107.404 1.12484 107.304 1.22439 107.161 1.26713V1.28179C107.275 1.32454 107.34 1.41125 107.376 1.56881C107.412 1.74774 107.434 1.81919 107.462 1.86194H107.169C107.133 1.81919 107.111 1.71171 107.075 1.57614C107.054 1.44667 106.982 1.38988 106.832 1.38988H106.703V1.86194V1.86133ZM106.71 1.19568H106.838C106.989 1.19568 107.111 1.14561 107.111 1.02347C107.111 0.9166 107.032 0.84515 106.86 0.84515C106.789 0.84515 106.739 0.851256 106.71 0.859195V1.19507V1.19568Z" fill="#6C6E71"/>
</svg>
