<svg width="120" height="26" viewBox="0 0 120 26" fill="none" xmlns="http://www.w3.org/2000/svg">
<g clip-path="url(#clip0_439_428)">
<path d="M120 11.5895V9.47915H117.38V6.19822L117.291 6.22535L114.83 6.97844L114.781 6.99324V9.47915H110.896V8.09443C110.896 7.44959 111.04 6.95609 111.325 6.627C111.607 6.30182 112.01 6.13655 112.525 6.13655C112.895 6.13655 113.278 6.22376 113.664 6.39571L113.761 6.4388V4.21625L113.715 4.19957C113.356 4.07028 112.866 4.00513 112.26 4.00513C111.495 4.00513 110.801 4.17142 110.195 4.50109C109.589 4.8312 109.112 5.3025 108.778 5.90177C108.445 6.50033 108.276 7.1916 108.276 7.95658V9.47915H106.452V11.5895H108.276V20.4802H110.896V11.5895H114.781V17.2394C114.781 19.5663 115.879 20.7456 118.043 20.7456C118.399 20.7456 118.773 20.7038 119.156 20.6221C119.545 20.5384 119.81 20.4546 119.966 20.3652L120 20.3449V18.215L119.894 18.2855C119.752 18.3804 119.575 18.4577 119.367 18.5152C119.158 18.5738 118.984 18.6033 118.849 18.6033C118.342 18.6033 117.967 18.4666 117.734 18.197C117.499 17.9249 117.38 17.449 117.38 16.7834V11.5895H120ZM100.601 18.6035C99.6506 18.6035 98.901 18.2881 98.3727 17.6671C97.8412 17.0429 97.5718 16.153 97.5718 15.0223C97.5718 13.8558 97.8411 12.9428 98.373 12.3076C98.9016 11.6765 99.6441 11.3563 100.58 11.3563C101.488 11.3563 102.212 11.6621 102.729 12.2659C103.25 12.8727 103.514 13.7785 103.514 14.9586C103.514 16.1532 103.266 17.0709 102.776 17.6847C102.289 18.294 101.558 18.6035 100.601 18.6035ZM100.718 9.21411C98.904 9.21411 97.4632 9.74562 96.436 10.794C95.4094 11.8425 94.8887 13.2934 94.8887 15.1069C94.8887 16.8293 95.3969 18.2147 96.3991 19.2241C97.4013 20.2338 98.7653 20.7453 100.453 20.7453C102.211 20.7453 103.623 20.2064 104.65 19.1435C105.677 18.0817 106.197 16.6446 106.197 14.8734C106.197 13.1241 105.709 11.7283 104.746 10.7256C103.782 9.72255 102.427 9.21411 100.718 9.21411ZM90.665 9.21405C89.431 9.21405 88.4104 9.52965 87.6306 10.152C86.8462 10.778 86.4483 11.5991 86.4483 12.5926C86.4483 13.1091 86.5342 13.5679 86.7032 13.9569C86.8733 14.3474 87.1365 14.691 87.4861 14.9794C87.8331 15.2656 88.3686 15.5654 89.0784 15.8702C89.6749 16.1157 90.12 16.3235 90.4026 16.4872C90.6789 16.6476 90.8751 16.8089 90.9858 16.9659C91.0933 17.1196 91.148 17.3298 91.148 17.5896C91.148 18.3286 90.5946 18.6881 89.4557 18.6881C89.0333 18.6881 88.5514 18.6001 88.0235 18.4261C87.4953 18.2524 87.0019 18.0027 86.557 17.6824L86.4483 17.6045V20.1266L86.4882 20.1451C86.8589 20.3162 87.3262 20.4604 87.877 20.574C88.4268 20.6877 88.9262 20.7456 89.3602 20.7456C90.6992 20.7456 91.7775 20.4284 92.5642 19.8024C93.3561 19.1721 93.7574 18.3316 93.7574 17.3036C93.7574 16.5621 93.5414 15.9261 93.1155 15.4133C92.6927 14.9046 91.9587 14.4376 90.9349 14.0248C90.1193 13.6975 89.5967 13.4257 89.3813 13.2172C89.1735 13.0156 89.068 12.7306 89.068 12.3698C89.068 12.0498 89.1981 11.7936 89.4656 11.5859C89.735 11.3773 90.11 11.2712 90.5804 11.2712C91.0169 11.2712 91.4635 11.3401 91.9075 11.4752C92.3514 11.6103 92.7411 11.7912 93.0666 12.0127L93.1735 12.0858V9.69333L93.1325 9.67562C92.8323 9.54692 92.4364 9.43678 91.9557 9.3474C91.4768 9.25889 91.0425 9.21405 90.665 9.21405ZM79.6189 18.6035C78.6683 18.6035 77.9184 18.2881 77.3902 17.6671C76.8585 17.0429 76.5897 16.1532 76.5897 15.0223C76.5897 13.8558 76.8588 12.9428 77.3908 12.3076C77.919 11.6765 78.6613 11.3563 79.5978 11.3563C80.5059 11.3563 81.2289 11.6621 81.7469 12.2659C82.2676 12.8727 82.5317 13.7785 82.5317 14.9586C82.5317 16.1532 82.2831 17.0709 81.7932 17.6847C81.3068 18.294 80.5757 18.6035 79.6189 18.6035ZM79.7358 9.21411C77.9213 9.21411 76.4804 9.74562 75.4537 10.794C74.427 11.8425 73.9061 13.2934 73.9061 15.1069C73.9061 16.83 74.4146 18.2147 75.4168 19.2241C76.419 20.2338 77.7829 20.7453 79.4704 20.7453C81.2285 20.7453 82.6411 20.2064 83.668 19.1435C84.6944 18.0817 85.2149 16.6446 85.2149 14.8734C85.2149 13.1241 84.7266 11.7283 83.7633 10.7256C82.7994 9.72255 81.4442 9.21411 79.7358 9.21411ZM69.9295 11.3842V9.47915H67.3417V20.4799H69.9295V14.8526C69.9295 13.8957 70.1464 13.1096 70.5745 12.5159C70.9972 11.9292 71.5605 11.6319 72.2481 11.6319C72.4812 11.6319 72.7428 11.6704 73.0262 11.7464C73.3066 11.822 73.5098 11.904 73.6296 11.9903L73.7383 12.0691V9.46029L73.6964 9.4423C73.4554 9.33985 73.1145 9.2882 72.6831 9.2882C72.0329 9.2882 71.4509 9.49715 70.9525 9.90851C70.515 10.2701 70.1987 10.7659 69.9569 11.3842H69.9295ZM62.7076 9.21405C61.5206 9.21405 60.4616 9.46871 59.5608 9.97047C58.6582 10.4734 57.9603 11.1915 57.4854 12.1047C57.0126 13.0156 56.7726 14.0797 56.7726 15.2662C56.7726 16.3055 57.0054 17.2595 57.4653 18.1C57.9256 18.9421 58.5771 19.6008 59.4017 20.0578C60.2252 20.5141 61.1769 20.7456 62.2307 20.7456C63.4604 20.7456 64.5104 20.4996 65.3523 20.0148L65.3862 19.9952V17.6245L65.2776 17.7039C64.8962 17.9816 64.4701 18.2034 64.0115 18.3631C63.5542 18.5227 63.1371 18.6034 62.7716 18.6034C61.7562 18.6034 60.9411 18.2856 60.3494 17.6594C59.7564 17.0321 59.4557 16.1514 59.4557 15.0431C59.4557 13.9279 59.7693 13.0246 60.3873 12.358C61.0033 11.6934 61.8199 11.3564 62.8143 11.3564C63.6649 11.3564 64.4937 11.6444 65.2779 12.2132L65.3862 12.292V9.79403L65.3513 9.77429C65.0561 9.60917 64.6538 9.47277 64.154 9.36931C63.6566 9.26614 63.1701 9.21405 62.7076 9.21405ZM54.9904 9.47918H52.4026V20.4799H54.9904V9.47918ZM53.7229 4.79278C53.297 4.79278 52.9256 4.93774 52.6204 5.22504C52.3139 5.51322 52.1584 5.87597 52.1584 6.30403C52.1584 6.72541 52.3121 7.08149 52.6155 7.36198C52.917 7.64159 53.2896 7.78336 53.7229 7.78336C54.156 7.78336 54.5301 7.64159 54.8353 7.36241C55.1424 7.08149 55.2981 6.72541 55.2981 6.30403C55.2981 5.89092 55.1466 5.53179 54.8479 5.23665C54.5495 4.94209 54.171 4.79278 53.7229 4.79278ZM47.2664 8.66756V20.4798H49.9073V5.12965H46.2523L41.6063 16.5313L37.0978 5.12965H33.2939V20.4798H35.7756V8.6664H35.861L40.6218 20.4798H42.4947L47.1812 8.66756H47.2664Z" fill="white"/>
<path d="M12.1733 12.1733H0V0H12.1733V12.1733Z" fill="#F1511B"/>
<path d="M25.6141 12.1733H13.4409V0H25.6141V12.1733Z" fill="#80CC28"/>
<path d="M12.173 25.6189H0V13.4456H12.173V25.6189Z" fill="#00ADEF"/>
<path d="M25.6141 25.6189H13.4409V13.4456H25.6141V25.6189Z" fill="#FBBC09"/>
</g>
<defs>
<clipPath id="clip0_439_428">
<rect width="120" height="25.7812" fill="white"/>
</clipPath>
</defs>
</svg>
