<svg width="120" height="60" viewBox="0 0 120 60" fill="none" xmlns="http://www.w3.org/2000/svg">
<path d="M50.2318 36.36C48.1818 36.36 46.8558 35.59 46.2578 35.12L46.2148 35.077L46.2578 34.992L47.1128 33.625L47.1558 33.54L47.2408 33.583C47.7538 33.968 48.7788 34.566 50.2408 34.566C51.4808 34.566 52.1638 34.01 52.1638 33.113C52.1638 32.087 51.3518 31.788 49.8138 31.275L49.6438 31.232C48.1478 30.719 46.7378 29.95 46.7378 27.899C46.7378 26.061 48.1378 24.865 50.3698 24.865C51.6518 24.865 52.6778 25.121 53.5318 25.635L53.6168 25.678L53.5738 25.763L52.8898 27.163L52.8468 27.248L52.7618 27.205C52.0358 26.82 51.2238 26.649 50.3688 26.649C49.5988 26.649 48.6688 26.863 48.6688 27.889C48.6688 28.872 49.3948 29.129 50.8488 29.589C52.4288 30.102 54.1488 30.871 54.1488 33.136C54.1918 35.144 52.6958 36.341 50.2488 36.341L50.2318 36.36ZM55.7018 39.137C55.3168 39.137 54.9758 39.094 54.5478 39.009H54.4628V38.924L54.6768 37.599V37.514H54.8908C55.1048 37.557 55.2758 37.557 55.4888 37.557C56.2588 37.557 56.7288 37.257 57.0688 36.617L54.1628 28.017H56.3428V28.06L57.9998 34.06L59.4958 28.077V27.992H61.5458L61.4608 28.162L58.8968 36.538C58.3838 38.333 57.3588 39.145 55.6918 39.145L55.7018 39.137ZM73.2218 36.23H71.1718V30.76C71.1718 30.076 71.0438 29.606 70.3598 29.606C69.8898 29.606 69.3338 29.906 68.7798 30.418V36.23H66.7298V30.76C66.7298 30.076 66.6018 29.606 65.9178 29.606C65.4048 29.606 64.8498 29.906 64.3378 30.461V36.231H62.2378V28.026H63.5198V28.069L63.8618 29.169C64.7168 28.272 65.5618 27.802 66.5118 27.802C67.6658 27.802 68.1358 28.442 68.4348 29.042C68.9908 28.444 69.8878 27.802 70.9988 27.802C72.8368 27.802 73.2208 29.382 73.2208 30.708V36.092L73.2218 36.23ZM76.7688 36.36C75.2728 36.36 74.2048 35.377 74.2048 34.01C74.2048 33.113 74.5048 32.472 75.1878 32.044C75.8718 31.574 76.9828 31.232 78.7348 30.976V30.762C78.7348 29.865 78.3928 29.522 77.5378 29.522C76.7678 29.522 76.0418 29.822 75.3158 30.162L75.2308 30.205L75.1878 30.12L74.5048 28.795L74.5898 28.752C75.6158 28.112 76.5978 27.812 77.7098 27.812C79.7178 27.812 80.7868 28.838 80.7868 30.846V36.23H79.5048L79.4618 36.187L79.1198 35.375C78.6498 35.845 77.8378 36.358 76.7698 36.358L76.7688 36.36ZM78.7348 32.343C77.4098 32.599 76.7268 32.856 76.4698 33.198C76.2998 33.412 76.2558 33.54 76.2558 33.882C76.2558 34.48 76.5978 34.822 77.1958 34.822C77.7088 34.822 78.2638 34.608 78.7338 34.224L78.7348 32.343ZM89.2478 36.23H87.1978V30.76C87.1978 29.948 86.8978 29.606 86.2578 29.606C85.7018 29.606 85.0608 29.948 84.5908 30.461V36.231H82.5408V28.026H83.8228V28.069L84.1648 29.169C85.0198 28.272 85.9168 27.802 86.8998 27.802C88.4378 27.802 89.2498 28.785 89.2498 30.708V36.092L89.2478 36.23ZM93.5638 36.36C91.9398 36.36 91.1708 35.548 91.1708 33.924V29.52H89.9738V28.024H91.2138L91.5988 25.802V25.717H93.2658V28.025H94.9658V29.521H93.2658V33.837C93.2658 34.521 93.3938 34.777 94.0778 34.777C94.3706 34.7704 94.6599 34.7129 94.9328 34.607L95.0178 34.564V34.649L95.2738 35.974V36.059L95.1888 36.102C94.9328 36.145 94.3338 36.358 93.5648 36.358L93.5638 36.36ZM99.2478 36.36C96.9398 36.36 95.5298 34.736 95.5298 32.172C95.5298 29.565 96.9298 27.856 99.1298 27.856C101.33 27.856 102.59 29.436 102.59 32.172V32.728H97.6758C97.8038 34.053 98.3158 34.651 99.3758 34.651C100.273 34.651 100.829 34.309 101.47 33.925L101.555 33.882L101.598 33.967L102.368 35.164L102.411 35.249L102.368 35.292C101.556 35.89 100.788 36.36 99.2478 36.36ZM97.6678 31.403H100.446C100.403 30.036 99.9758 29.395 99.0788 29.395C98.2668 29.395 97.7968 30.079 97.6788 31.403H97.6678ZM107.11 36.36C104.375 36.36 103.435 34.18 103.435 32.172C103.435 30.164 104.418 27.856 107.11 27.856C108.21 27.856 109.033 28.112 109.76 28.753L109.803 28.796L109.76 28.839L108.905 30.079L108.862 30.164L108.777 30.121C108.307 29.779 107.88 29.565 107.153 29.565C106.085 29.565 105.573 30.42 105.573 32.172C105.573 33.839 106.129 34.692 107.197 34.692C107.923 34.692 108.394 34.436 108.864 34.008L108.949 33.965L108.992 34.05L109.889 35.204L109.932 35.247L109.889 35.29C109.119 36.016 108.265 36.358 107.111 36.358L107.11 36.36Z" fill="white"/>
<path d="M24.8198 45.0351C16.6728 45.0351 10.0698 38.4311 10.0698 30.2851C10.0698 22.1391 16.6738 15.5351 24.8198 15.5351C32.9658 15.5351 39.5698 22.1391 39.5698 30.2851C39.5698 38.4311 32.9038 45.0351 24.8198 45.0351ZM24.8198 20.1621C22.1038 20.1621 19.5738 21.2121 17.7218 23.1251C15.8088 25.0381 14.7588 27.5691 14.7588 30.2851C14.7588 33.0011 15.8088 35.5311 17.7218 37.4451C19.6348 39.3591 22.1658 40.4081 24.8198 40.4081C27.5358 40.4081 30.0658 39.3581 31.9798 37.4451C32.9239 36.5078 33.672 35.392 34.1807 34.1628C34.6894 32.9335 34.9485 31.6154 34.9428 30.2851C34.9428 27.5691 33.8928 25.0391 31.9798 23.1251C30.0048 21.2121 27.4738 20.1621 24.8198 20.1621ZM40.8668 13.2501H42.0398V14.4231H40.8668V13.2501ZM40.8668 10.9651H42.0398V12.1381H40.8668V10.9651ZM37.5968 14.3601H38.6468V15.4601H37.5968V14.3601Z" fill="#FFB71B"/>
<path d="M35.4979 16.5819H36.5979V17.6319H35.4979V16.5819ZM38.6979 15.5319H39.9319V16.6319H38.6979V15.5319ZM34.4399 15.5329H35.4899V16.5829H34.4399V15.5329ZM37.5859 16.5829H38.6359V17.6329H37.5859V16.5829ZM39.6959 12.0759H40.7959V13.1759H39.6959V12.0759ZM37.5959 13.2499H39.6939V14.4229H37.5959V13.2499Z" fill="white"/>
<path d="M36.6 14.3599H37.65V16.5819H36.6V14.3599ZM36.6 17.6299V18.7299H35.5V17.6299H33.7V18.4319H32.712V19.4199H33.762V20.4699H32.712V19.4199H31.612V21.0859H30.512V22.1359H29.772V23.2359H28.97C28.106 24.5319 25.884 28.6659 25.205 30.3339C22.798 26.9389 20.885 25.6339 19.403 25.1499C18.601 24.9029 17.603 25.7669 18.971 27.1249C21.995 30.4579 22.983 33.2249 23.909 35.4569C24.403 36.6299 26.563 36.8149 27.057 35.6419C27.983 33.1119 29.341 30.2719 30.945 27.9889V26.8159H31.809V25.7159H32.735V24.4819H33.785V23.2479H32.685V22.1479H33.785V23.2479H34.835V22.1479H35.761V20.8399H36.749V19.9759H37.613V17.6919H36.625L36.6 17.6299Z" fill="white"/>
</svg>
