<svg width="120" height="39" viewBox="0 0 120 39" fill="none" xmlns="http://www.w3.org/2000/svg">
<path d="M47.1461 33.7846V34.8923H46.6384V27.4615H47.1461V30.8769C47.6077 30.1846 48.2538 29.5846 49.2692 29.5846C50.5153 29.5846 51.8077 30.6 51.8077 32.3077C51.8077 34.0154 50.5153 35.0308 49.2692 35.0308C48.2077 34.9846 47.5615 34.4308 47.1461 33.7846ZM51.2538 32.3077C51.2538 30.9231 50.2846 30.0462 49.223 30.0462C48.1615 30.0462 47.1 30.9692 47.1 32.2615C47.1 33.6 48.1615 34.4769 49.223 34.4769C50.3307 34.5231 51.2538 33.6923 51.2538 32.3077ZM57.1615 29.6769H57.7154L55.4538 35.0769C54.9923 36.1846 54.4846 36.5539 53.7 36.5539C53.2846 36.5539 53.0077 36.4615 52.6846 36.3231L52.8692 35.9077C53.1461 36.0462 53.3769 36.0923 53.7461 36.0923C54.3 36.0923 54.623 35.7692 55.0384 34.8462L52.5461 29.6769H53.1461L55.3154 34.3385L57.1615 29.6769ZM62.1 27.7385H65.2846C66.1153 27.7385 66.7615 27.9692 67.1307 28.3846C67.4538 28.7077 67.5923 29.0769 67.5923 29.5846C67.5923 30.4615 67.0846 30.8769 66.5769 31.1539C67.4077 31.4308 68.0077 31.9385 68.0077 32.9077C68.0077 34.2 66.9461 34.8462 65.3769 34.8462H62.0538V27.7385H62.1ZM66.3923 29.7692C66.3923 29.2154 65.9307 28.8462 65.1461 28.8462H63.3461V30.7385H65.0538C65.8846 30.7385 66.3923 30.4615 66.3923 29.7692ZM65.3307 31.8H63.3461V33.7385H65.423C66.2538 33.7385 66.8077 33.4154 66.8077 32.7692C66.8077 32.1692 66.3461 31.8 65.3307 31.8ZM69.3461 29.4923H70.5923V30.6923C70.9153 29.9077 71.5615 29.3539 72.4846 29.4V30.6923H72.3923C71.3307 30.6923 70.5461 31.3846 70.5461 32.8154V34.8462H69.3461V29.4923ZM73.0846 32.2154C73.0846 30.6462 74.3307 29.4 75.9461 29.4C77.6077 29.4 78.8077 30.6462 78.8077 32.2154C78.8077 33.7385 77.5615 35.0308 75.9 35.0308C74.2846 34.9846 73.0846 33.7385 73.0846 32.2154ZM77.5615 32.2154C77.5615 31.2462 76.8692 30.4615 75.9 30.4615C74.9307 30.4615 74.2846 31.2462 74.2846 32.1692C74.2846 33.0923 74.9769 33.8769 75.9461 33.8769C76.9615 33.9231 77.5615 33.1385 77.5615 32.2154ZM79.6846 33.3231C79.6846 32.1231 80.6077 31.5692 81.9 31.5692C82.5 31.5692 82.9154 31.6615 83.3307 31.8V31.6615C83.3307 30.8769 82.8692 30.5077 81.9923 30.5077C81.3923 30.5077 80.9307 30.6462 80.4692 30.8308L80.1461 29.8615C80.7461 29.5846 81.3461 29.4462 82.1769 29.4462C82.9615 29.4462 83.5615 29.6769 83.9769 30.0462C84.3923 30.4154 84.5769 31.0154 84.5769 31.7077V34.8923H83.3769V34.2C83.0077 34.6154 82.4538 34.9846 81.623 34.9846C80.6077 34.9846 79.6846 34.4308 79.6846 33.3231ZM83.3769 32.9539V32.5846C83.0538 32.4462 82.6384 32.3539 82.1307 32.3539C81.3461 32.3539 80.8846 32.6769 80.8846 33.2308C80.8846 33.7385 81.3461 34.0615 81.9461 34.0615C82.7769 34.1077 83.3769 33.6462 83.3769 32.9539ZM85.7769 32.2154C85.7769 30.4154 86.9769 29.4 88.2692 29.4C89.1461 29.4 89.7 29.8154 90.1153 30.3692V27.4615H91.3615V34.8923H90.1153V34.0154C89.7 34.5692 89.1461 35.0308 88.2692 35.0308C87.023 34.9846 85.7769 33.9692 85.7769 32.2154ZM90.1153 32.2154C90.1153 31.1539 89.3769 30.4615 88.5461 30.4615C87.7154 30.4615 86.9769 31.1077 86.9769 32.1692C86.9769 33.2308 87.6692 33.8769 88.5461 33.8769C89.3769 33.9231 90.1153 33.2308 90.1153 32.2154ZM92.6077 32.2154C92.6077 30.6462 93.8077 29.4 95.423 29.4C96.4384 29.4 97.0846 29.7692 97.5923 30.3231L96.8077 31.1539C96.4384 30.7846 96.023 30.4615 95.423 30.4615C94.5461 30.4615 93.8538 31.2462 93.8538 32.1692C93.8538 33.1385 94.5 33.8769 95.4692 33.8769C96.0692 33.8769 96.4846 33.6 96.8538 33.2308L97.5923 33.9692C97.0846 34.5692 96.4384 34.9846 95.3769 34.9846C93.7615 34.9846 92.6077 33.7385 92.6077 32.2154ZM98.2384 32.2154C98.2384 30.6462 99.4846 29.4 101.1 29.4C102.761 29.4 103.962 30.6462 103.962 32.2154C103.962 33.7385 102.715 35.0308 101.054 35.0308C99.4846 34.9846 98.2384 33.7385 98.2384 32.2154ZM102.762 32.2154C102.762 31.2462 102.069 30.4615 101.1 30.4615C100.131 30.4615 99.4846 31.2462 99.4846 32.1692C99.4846 33.0923 100.177 33.8769 101.146 33.8769C102.115 33.9231 102.762 33.1385 102.762 32.2154ZM105.254 29.4923H106.5V30.3231C106.869 29.8615 107.331 29.4 108.162 29.4C108.946 29.4 109.5 29.7692 109.777 30.3692C110.192 29.8154 110.792 29.4 111.577 29.4C112.731 29.4 113.469 30.1385 113.469 31.4769V34.8923H112.223V31.8462C112.223 30.9692 111.808 30.5539 111.115 30.5539C110.423 30.5539 109.962 31.0154 109.962 31.8923V34.9385H108.715V31.8923C108.715 31.0615 108.3 30.6 107.608 30.6C106.915 30.6 106.454 31.1077 106.454 31.9385V34.9846H105.208V29.4923H105.254Z" fill="white"/>
<path d="M69.8539 2.72307C69.1616 2.72307 68.8385 3.18461 68.6539 3.6923L64.4077 15.8769L60.2077 3.6923C60.0231 3.13846 59.6077 2.67692 58.9154 2.67692H58.777C58.1308 2.67692 57.7616 3.0923 57.577 3.6923L53.3769 15.8769L49.177 3.73846C48.9923 3.13846 48.577 2.72307 47.9308 2.72307C47.1923 2.72307 46.6846 3.32307 46.6846 3.92307C46.6846 4.15384 46.7769 4.38461 46.8231 4.61538L51.9 18.6923C52.1769 19.4308 52.6846 19.8 53.2846 19.8H53.3308C53.977 19.8 54.4385 19.4308 54.6693 18.6923L58.8693 6.73846L63.0231 18.6923C63.2539 19.4308 63.7154 19.8 64.3616 19.8H64.4539C65.0539 19.8 65.5616 19.4308 65.7923 18.6923L70.8693 4.56923C70.9154 4.38461 71.0077 4.10769 71.0077 3.87692C71.1 3.27692 70.5462 2.72307 69.8539 2.72307ZM96.9462 2.72307C95.1462 2.72307 92.4231 4.01538 91.2231 6.83076V3.96923C91.2231 3.27692 90.6693 2.72307 89.977 2.72307C89.2846 2.72307 88.7308 3.32307 88.7308 3.96923V18.5538C88.7308 19.2461 89.2846 19.8 89.977 19.8C90.6693 19.8 91.2231 19.2 91.2231 18.5538V12.8769C91.2231 8.07692 93.8539 5.63076 97.0846 5.26153C97.7308 5.16923 98.1923 4.66153 98.1923 4.01538C98.1923 3.27692 97.7308 2.72307 96.9462 2.72307ZM105.854 2.67692C101.331 2.67692 98.0077 6.50769 98.0077 11.2615V11.3077C98.0077 16.4308 101.654 19.8923 106.177 19.8923C108.946 19.8923 110.792 18.9231 112.362 17.4C112.638 17.1692 112.731 16.8923 112.731 16.6154C112.731 16.0154 112.269 15.5538 111.669 15.5538C111.392 15.5538 111.162 15.6923 110.977 15.8308C109.777 16.9385 108.3 17.7692 106.269 17.7692C103.362 17.7692 100.869 15.7385 100.5 12.1846H112.315C112.915 12.1846 113.469 11.7231 113.469 11.0308C113.423 6.6923 110.7 2.67692 105.854 2.67692ZM100.5 10.3846C100.823 7.15384 102.946 4.75384 105.808 4.75384C109.038 4.75384 110.792 7.38461 111.023 10.3846H100.5ZM78.6693 2.72307C76.5462 2.72307 75.3 2.95384 73.6846 3.6923C73.2231 3.87692 72.9923 4.2 72.9923 4.70769C72.9923 5.26153 73.5 5.76923 74.1 5.76923C74.2385 5.76923 74.377 5.72307 74.5616 5.67692C75.8077 5.12307 76.7769 4.93846 78.4385 4.93846C81.577 4.93846 83.3769 6.46153 83.3769 9.46153V10.0615C81.9 9.64615 80.377 9.36923 78.2539 9.36923C74.0539 9.36923 71.1462 11.2154 71.1462 14.7231V14.7692C71.1462 18.1846 74.2846 19.9385 77.3769 19.9385C80.2846 19.9385 82.2231 18.6 83.3769 17.0769V18.6461C83.3769 19.2923 83.8385 19.8 84.577 19.8C85.2693 19.8 85.777 19.2923 85.777 18.6V9.41538C85.777 7.2923 85.1769 5.67692 84.0693 4.56923C82.8231 3.32307 80.977 2.72307 78.6693 2.72307ZM83.3769 13.4769C83.3769 16.1077 80.8846 18 77.7923 18C75.5308 18 73.5923 16.7538 73.5923 14.6769V14.6308C73.5923 12.5538 75.3462 11.1692 78.4385 11.1692C80.4693 11.1692 82.0846 11.5385 83.3308 11.8615V13.4769H83.3769ZM39.6693 2.35384C36.4385 2.35384 34.4077 4.61538 34.4077 4.61538C33.3462 3.23076 31.8231 2.35384 29.3308 2.35384C26.6539 2.35384 24.3462 4.61538 24.3462 4.61538C23.2846 3.23076 21.4385 2.35384 19.9154 2.35384C17.5616 2.35384 15.6693 3.36923 14.5616 5.99999L11.1923 13.9385L6.85387 3.73846C6.30003 2.53846 4.96157 1.98461 3.71541 2.58461C2.46926 3.13846 2.00772 4.52307 2.56157 5.72307L7.8231 17.2154C8.65387 19.0154 9.5308 19.9385 11.1923 19.9385C12.9462 19.9385 13.7308 18.9231 14.5616 17.2154C14.5616 17.2154 19.177 7.19999 19.2231 7.06153C19.2693 6.96922 19.4077 6.64615 19.8693 6.64615C20.2846 6.64615 20.6077 6.96923 20.6077 7.38461V17.2154C20.6077 18.7385 21.4385 19.9846 23.0539 19.9846C24.6693 19.9846 25.5462 18.7385 25.5462 17.2154V9.18461C25.5462 7.61538 26.6539 6.64615 28.177 6.64615C29.7 6.64615 30.7154 7.66153 30.7154 9.18461V17.2154C30.7154 18.7385 31.5462 19.9846 33.1616 19.9846C34.7769 19.9846 35.6539 18.7385 35.6539 17.2154V9.18461C35.6539 7.61538 36.7616 6.64615 38.2846 6.64615C39.8077 6.64615 40.8231 7.66153 40.8231 9.18461V17.2154C40.8231 18.7385 41.6539 19.9846 43.2693 19.9846C44.8846 19.9846 45.7616 18.7385 45.7616 17.2154V8.07692C45.6231 4.70769 42.9 2.35384 39.6693 2.35384ZM115.685 2.67692C114.531 2.67692 113.608 3.59999 113.608 4.75384C113.608 5.86153 114.485 6.83076 115.685 6.83076C116.838 6.83076 117.762 5.90769 117.762 4.75384C117.762 3.59999 116.838 2.67692 115.685 2.67692ZM117.346 4.75384C117.346 5.67692 116.608 6.46153 115.685 6.46153C114.715 6.46153 114.023 5.72307 114.023 4.79999C114.023 3.87692 114.762 3.0923 115.685 3.0923C116.654 3.04615 117.346 3.83076 117.346 4.75384Z" fill="white"/>
<path d="M115.823 3.73846H115.131C114.992 3.73846 114.9 3.83077 114.9 3.96923V5.53846C114.9 5.67693 114.992 5.76923 115.131 5.76923C115.269 5.76923 115.361 5.67693 115.361 5.53846V5.12308H115.731L116.146 5.67693C116.192 5.72308 116.285 5.76923 116.377 5.76923C116.469 5.76923 116.608 5.67693 116.608 5.58462C116.608 5.53846 116.561 5.49231 116.561 5.4L116.238 5.03077C116.469 4.93846 116.654 4.75385 116.654 4.43077C116.654 4.24616 116.608 4.1077 116.469 3.96923C116.285 3.78462 116.054 3.73846 115.823 3.73846ZM116.146 4.38462C116.146 4.56923 116.008 4.66154 115.823 4.66154H115.361V4.10769H115.777C116.008 4.10769 116.146 4.2 116.146 4.38462Z" fill="white"/>
</svg>
